<svg width="65" height="65" viewBox="0 0 65 65" fill="none" xmlns="http://www.w3.org/2000/svg">
<g id="Chat" clip-path="url(#clip0_5_2)">
<path id="Vector" d="M43.2104 20.8372C55.079 20.6559 64.766 29.9972 64.9958 41.8649C65.0296 43.6073 64.8554 45.3033 64.4966 46.93C63.889 49.6845 63.5278 52.4875 63.5278 55.3083V60.7607C63.5278 61.596 62.8507 62.2732 62.0153 62.2732H56.563C53.7422 62.2732 50.9392 62.6344 48.1847 63.242C46.5581 63.6007 44.8621 63.7749 43.1197 63.7411C31.2521 63.5115 21.9108 53.8247 22.0918 41.9564C22.2684 30.372 31.6261 21.0141 43.2104 20.8372Z" fill="url(#paint0_linear_5_2)"/>
<path id="Vector_2" d="M43.2104 20.8372C55.079 20.6559 64.766 29.9972 64.9958 41.8649C65.0296 43.6073 64.8554 45.3033 64.4966 46.93C63.889 49.6845 63.5278 52.4875 63.5278 55.3083V60.7607C63.5278 61.596 62.8507 62.2732 62.0153 62.2732H56.563C53.7422 62.2732 50.9392 62.6344 48.1847 63.242C46.5581 63.6007 44.8621 63.7749 43.1197 63.7411C31.2521 63.5115 21.9108 53.8247 22.0918 41.9564C22.2684 30.372 31.6261 21.0141 43.2104 20.8372Z" fill="url(#paint1_linear_5_2)"/>
<path id="Vector_3" d="M26.5456 1.25798C12.0864 1.03709 0.285024 12.4173 0.00496626 26.8754C-0.0360395 28.998 0.176099 31.0644 0.613325 33.0461C1.35346 36.4017 1.79348 39.8166 1.79348 43.2531V49.8955C1.79348 50.9132 2.61842 51.7383 3.6362 51.7383H10.2786C13.715 51.7383 17.1299 52.1783 20.4856 52.9184C22.4674 53.3555 24.5337 53.5678 26.6562 53.5266C41.1141 53.2467 52.4943 41.4457 52.2739 26.9868C52.0586 12.8738 40.6585 1.47342 26.5456 1.25798Z" fill="url(#paint2_linear_5_2)"/>
<path id="Vector_4" d="M16.7823 25.9922C16.0439 25.2076 14.9989 24.7149 13.8362 24.7149C11.6002 24.7149 9.78757 26.5276 9.78757 28.7636C9.78757 29.9261 10.2801 30.9712 11.0648 31.7097L19.7984 40.4433C20.5369 41.2278 21.582 41.7205 22.7445 41.7205C24.9805 41.7205 26.7932 39.9079 26.7932 37.6719C26.7932 36.5094 26.3005 35.4643 25.5159 34.7258L16.7823 25.9922Z" fill="url(#paint3_linear_5_2)"/>
<path id="Vector_5" d="M13.8361 32.8117C16.0721 32.8117 17.8848 30.9991 17.8848 28.7631C17.8848 26.5271 16.0721 24.7144 13.8361 24.7144C11.6001 24.7144 9.78745 26.5271 9.78745 28.7631C9.78745 30.9991 11.6001 32.8117 13.8361 32.8117Z" fill="white"/>
<path id="Vector_6" d="M28.2322 25.9922C27.4938 25.2076 26.4487 24.7149 25.2861 24.7149C23.0501 24.7149 21.2374 26.5276 21.2374 28.7636C21.2374 29.9261 21.73 30.9712 22.5147 31.7097L31.2483 40.4433C31.9868 41.2278 33.0319 41.7205 34.1944 41.7205C36.4304 41.7205 38.243 39.9079 38.243 37.6719C38.243 36.5094 37.7503 35.4643 36.9657 34.7258L28.2322 25.9922Z" fill="url(#paint4_linear_5_2)"/>
<path id="Vector_7" d="M25.2862 32.8117C27.5222 32.8117 29.3349 30.9991 29.3349 28.7631C29.3349 26.5271 27.5222 24.7144 25.2862 24.7144C23.0502 24.7144 21.2376 26.5271 21.2376 28.7631C21.2376 30.9991 23.0502 32.8117 25.2862 32.8117Z" fill="white"/>
<path id="Vector_8" d="M39.6819 25.9922C38.9436 25.2076 37.8985 24.7149 36.7358 24.7149C34.4998 24.7149 32.6872 26.5276 32.6872 28.7636C32.6872 29.9261 33.1799 30.9712 33.9645 31.7097L42.6981 40.4433C43.4365 41.2278 44.4816 41.7205 45.6441 41.7205C47.8802 41.7205 49.6928 39.9079 49.6928 37.6719C49.6928 36.5094 49.2001 35.4643 48.4155 34.7258L39.6819 25.9922Z" fill="url(#paint5_linear_5_2)"/>
<path id="Vector_9" d="M36.7365 32.8117C38.9725 32.8117 40.7851 30.9991 40.7851 28.7631C40.7851 26.5271 38.9725 24.7144 36.7365 24.7144C34.5005 24.7144 32.6878 26.5271 32.6878 28.7631C32.6878 30.9991 34.5005 32.8117 36.7365 32.8117Z" fill="white"/>
</g>
<defs>
<linearGradient id="paint0_linear_5_2" x1="39.2135" y1="37.9602" x2="70.7136" y2="69.4603" gradientUnits="userSpaceOnUse">
<stop stop-color="#A7F3CE"/>
<stop offset="1" stop-color="#61DB99"/>
</linearGradient>
<linearGradient id="paint1_linear_5_2" x1="49.525" y1="48.2711" x2="36.1455" y2="34.8929" gradientUnits="userSpaceOnUse">
<stop stop-color="#61DB99" stop-opacity="0"/>
<stop offset="1" stop-color="#009E74"/>
</linearGradient>
<linearGradient id="paint2_linear_5_2" x1="16.5888" y1="23.1675" x2="49.8464" y2="56.4251" gradientUnits="userSpaceOnUse">
<stop stop-color="#62E1FB"/>
<stop offset="1" stop-color="#00A2F3"/>
</linearGradient>
<linearGradient id="paint3_linear_5_2" x1="22.8425" y1="37.7707" x2="5.3319" y2="20.2606" gradientUnits="userSpaceOnUse">
<stop stop-color="#00A2F3" stop-opacity="0"/>
<stop offset="1" stop-color="#0075CD"/>
</linearGradient>
<linearGradient id="paint4_linear_5_2" x1="34.2916" y1="37.7703" x2="16.7815" y2="20.2602" gradientUnits="userSpaceOnUse">
<stop stop-color="#00A2F3" stop-opacity="0"/>
<stop offset="1" stop-color="#0075CD"/>
</linearGradient>
<linearGradient id="paint5_linear_5_2" x1="45.7413" y1="37.7704" x2="28.2312" y2="20.2604" gradientUnits="userSpaceOnUse">
<stop stop-color="#00A2F3" stop-opacity="0"/>
<stop offset="1" stop-color="#0075CD"/>
</linearGradient>
<clipPath id="clip0_5_2">
<rect width="65" height="65" fill="white"/>
</clipPath>
</defs>
</svg>
