<svg width="64" height="64" viewBox="0 0 64 64" fill="none" xmlns="http://www.w3.org/2000/svg">
<g id="Measuring" clip-path="url(#clip0_5_131)">
<path id="Vector" d="M14.2495 64.0002C13.7697 64.0002 13.2898 63.8171 12.9238 63.451L0.549308 51.0766C-0.18294 50.3445 -0.18294 49.1572 0.549308 48.425L48.4248 0.549459C49.157 -0.182665 50.3442 -0.182665 51.0765 0.549459L63.4508 12.9237C63.8024 13.2753 64.0001 13.7522 64.0001 14.2494C64.0001 14.7467 63.8026 15.2237 63.4508 15.5752L15.5753 63.451C15.2092 63.8171 14.7294 64.0002 14.2495 64.0002Z" fill="#19E8F7"/>
<path id="Vector_2" d="M64.0001 14.2488C64.0001 14.7463 63.8026 15.2238 63.4514 15.5751L15.575 63.4513C15.2087 63.8176 14.7287 64.0001 14.25 64.0001C13.77 64.0001 13.29 63.8176 12.9237 63.4513L6.73624 57.2638L57.2637 6.73633L63.4512 12.9238C63.8025 13.2751 64.0001 13.7526 64.0001 14.2488Z" fill="#0FCDDD"/>
<path id="Vector_3" d="M2.57149 0.134249C1.76587 -0.188001 0.828491 0.0806242 0.321366 0.824749C-0.0357591 1.34875 -0.0843841 2.025 0.151116 2.61375L2.91212 9.51625C3.41199 10.766 5.02699 11.0975 5.97887 10.1457L10.1457 5.97887C11.0976 5.027 10.7661 3.41212 9.51624 2.91212L2.57149 0.134249Z" fill="#56616C"/>
<g id="Group">
<path id="Vector_4" d="M58.6425 20.3851L55.99 23.0364L50.245 17.2914C49.5125 16.5589 49.5125 15.3714 50.245 14.6389C50.9775 13.9076 52.1638 13.9064 52.8963 14.6389L58.6425 20.3851Z" fill="#414D5A"/>
<path id="Vector_5" d="M52.455 26.5726L49.8025 29.2238L44.9413 24.3626C44.2088 23.6301 44.2088 22.4426 44.9413 21.7101C45.6738 20.9788 46.8613 20.9788 47.5925 21.7101L52.455 26.5726Z" fill="#414D5A"/>
<path id="Vector_6" d="M23.0364 55.9901L20.3851 58.6426L14.6389 52.8963C13.9076 52.1638 13.9076 50.9763 14.6389 50.2451C15.3714 49.5126 16.5589 49.5126 17.2914 50.2451L23.0364 55.9901Z" fill="#414D5A"/>
<path id="Vector_7" d="M29.2238 49.8026L26.5726 52.4551L21.7101 47.5926C20.9776 46.8613 20.9776 45.6738 21.7101 44.9413C22.4426 44.2088 23.6301 44.2088 24.3626 44.9413L29.2238 49.8026Z" fill="#414D5A"/>
</g>
<path id="Vector_8" d="M21.3894 8.56919C21.2626 7.95181 20.8342 7.43931 20.2491 7.20531L9.29963 2.82544L2.8255 9.29956L7.20525 20.2491C7.43925 20.8342 7.95175 21.2626 8.56913 21.3893C8.6945 21.4151 8.82075 21.4277 8.94613 21.4277C9.43838 21.4277 9.91688 21.2337 10.2719 20.8784L20.8785 10.2718C21.3241 9.82619 21.516 9.18644 21.3894 8.56919Z" fill="#FFCFAF"/>
<path id="Vector_9" d="M53.0717 64C51.5692 64 50.1567 63.4149 49.0943 62.3524L42.9072 56.1653C42.1749 55.4331 42.1749 54.2459 42.9072 53.5136L53.5138 42.907C54.2459 42.1749 55.4332 42.1749 56.1654 42.907L62.3525 49.0941C63.415 50.1565 64.0002 51.5691 64.0002 53.0715C64.0002 54.5741 63.415 55.9866 62.3525 57.049L57.0493 62.3523C55.9868 63.4149 54.5742 64 53.0717 64Z" fill="#FFE141"/>
<path id="Vector_10" d="M48.2104 48.2104L42.907 53.5138C42.1748 54.2459 42.1748 55.4332 42.907 56.1655L49.0942 62.3526C50.1565 63.4151 51.5692 64.0002 53.0715 64.0002C54.5742 64.0002 55.9867 63.4151 57.049 62.3526L59.7007 59.701L48.2104 48.2104Z" fill="#FFC814"/>
<path id="Vector_11" d="M20.8786 7.62036L56.1654 42.9072L42.9071 56.1654L7.62024 20.8786L20.8786 7.62036Z" fill="#1FA5FF"/>
<path id="Vector_12" d="M7.61664 20.8801L14.2448 14.252L49.5263 49.5335L42.8981 56.1616L7.61664 20.8801Z" fill="#0D8EF0"/>
</g>
<defs>
<clipPath id="clip0_5_131">
<rect width="64" height="64" fill="white"/>
</clipPath>
</defs>
</svg>
