<svg width="65" height="65" viewBox="0 0 65 65" fill="none" xmlns="http://www.w3.org/2000/svg">
<g id="Phone call" clip-path="url(#clip0_5_27)">
<g id="Phone_Call_4_">
<g id="Group">
<g id="Group_2">
<path id="Vector" d="M54.5078 53.2846C54.3386 51.5737 53.4217 50.045 51.9917 49.0911L42.2973 42.6288C40.0341 41.1206 37.0085 41.4256 35.0874 43.3429L31.9892 46.4671C31.2844 46.7127 28.0245 45.3309 23.8272 41.1318C19.6281 36.9308 18.265 33.6987 18.4435 33.0553L21.6216 29.8771C23.5408 27.958 23.842 24.9248 22.3357 22.6672L15.8734 12.9728C14.9194 11.5427 13.3907 10.626 11.6799 10.4567C9.96529 10.2856 8.29535 10.8881 7.08092 12.1026L2.28666 16.8968C-4.28355 23.467 4.27284 37.9054 15.6651 49.2996C23.41 57.0445 40.3585 70.3965 48.0679 62.678L52.8621 57.8838C54.0764 56.6711 54.677 54.9937 54.5078 53.2846Z" fill="url(#paint0_linear_5_27)"/>
</g>
</g>
<g id="Group_3">
<g id="Group_4">
<path id="Vector_2" d="M36.4355 0C35.383 0 34.5312 0.851728 34.5312 1.9043C34.5312 2.95687 35.383 3.80859 36.4355 3.80859C50.0855 3.80859 61.1914 14.9145 61.1914 28.5645C61.1914 29.617 62.0431 30.4688 63.0957 30.4688C64.1483 30.4688 65 29.617 65 28.5645C65 12.8131 52.1869 0 36.4355 0ZM36.4355 7.61719C35.383 7.61719 34.5312 8.46892 34.5312 9.52148C34.5312 10.5741 35.383 11.4258 36.4355 11.4258C45.8863 11.4258 53.5742 19.1137 53.5742 28.5645C53.5742 29.617 54.4259 30.4688 55.4785 30.4688C56.5311 30.4688 57.3828 29.617 57.3828 28.5645C57.3828 17.0141 47.9859 7.61719 36.4355 7.61719ZM36.4355 15.2344C35.383 15.2344 34.5312 16.0861 34.5312 17.1387C34.5312 18.1912 35.383 19.043 36.4355 19.043C41.6854 19.043 45.957 23.3146 45.957 28.5645C45.957 29.617 46.8088 30.4688 47.8613 30.4688C48.9139 30.4688 49.7656 29.617 49.7656 28.5645C49.7656 21.215 43.785 15.2344 36.4355 15.2344ZM36.4355 22.8516C35.383 22.8516 34.5312 23.7033 34.5312 24.7559C34.5312 25.8084 35.383 26.6602 36.4355 26.6602C37.4862 26.6602 38.3398 27.5138 38.3398 28.5645C38.3398 29.617 39.1916 30.4688 40.2441 30.4688C41.2967 30.4688 42.1484 29.617 42.1484 28.5645C42.1484 25.4142 39.5858 22.8516 36.4355 22.8516Z" fill="url(#paint1_linear_5_27)"/>
</g>
</g>
</g>
</g>
<defs>
<linearGradient id="paint0_linear_5_27" x1="27.268" y1="65" x2="27.268" y2="10.4279" gradientUnits="userSpaceOnUse">
<stop stop-color="#5558FF"/>
<stop offset="1" stop-color="#00C0FF"/>
</linearGradient>
<linearGradient id="paint1_linear_5_27" x1="49.7656" y1="30.4688" x2="49.7656" y2="0" gradientUnits="userSpaceOnUse">
<stop stop-color="#ADDCFF"/>
<stop offset="0.5028" stop-color="#EAF6FF"/>
<stop offset="1" stop-color="#EAF6FF"/>
</linearGradient>
<clipPath id="clip0_5_27">
<rect width="65" height="65" fill="white"/>
</clipPath>
</defs>
</svg>
