<svg width="64" height="64" viewBox="0 0 64 64" fill="none" xmlns="http://www.w3.org/2000/svg">
<g id="Play" clip-path="url(#clip0_5_125)">
<g id="Group">
<path id="Vector" d="M32 0V64C49.6731 64 64 49.6731 64 32C64 14.3269 49.6731 0 32 0Z" fill="#3B88F5"/>
<path id="Vector_2" d="M60.1368 32C60.1368 14.3269 47.5395 0 32 0C14.3269 0 0 14.3269 0 32C0 49.6731 14.3269 64 32 64C47.5395 64 60.1368 49.6731 60.1368 32Z" fill="#28ABFA"/>
<path id="Vector_3" d="M48.5444 28.6533C48.5444 28.652 26.6272 15.998 26.6272 15.998C25.9621 15.6149 25.1937 15.4367 24.4252 15.4892L24.4246 48.5107C25.1931 48.5631 25.9615 48.3848 26.6261 48.0012L48.5444 35.3466C49.7004 34.6789 50.4789 33.4307 50.4789 31.9999C50.4789 30.5692 49.7004 29.321 48.5444 28.6533Z" fill="#C4F3FF"/>
<path id="Vector_4" d="M44.9333 35.3466C45.9386 34.679 46.6157 33.4308 46.6157 32C46.6157 30.5692 45.9386 29.321 44.9333 28.6533C44.9333 28.652 25.8716 15.998 25.8716 15.998C25.4287 15.7047 24.9331 15.5311 24.4251 15.4893C23.8563 15.528 23.2875 15.6926 22.7604 15.9969C21.5212 16.7123 20.8296 18.0106 20.8293 19.3455C20.8282 19.3461 20.8282 44.6541 20.8282 44.6541C20.8296 45.9896 21.5212 47.2879 22.7604 48.0033C23.2872 48.3075 23.856 48.472 24.4244 48.5108C24.9324 48.469 25.4279 48.2951 25.8705 48.0014L44.9333 35.3466Z" fill="white"/>
</g>
</g>
<defs>
<clipPath id="clip0_5_125">
<rect width="64" height="64" fill="white"/>
</clipPath>
</defs>
</svg>
