<svg width="69" height="69" viewBox="0 0 69 69" fill="none" xmlns="http://www.w3.org/2000/svg">
<g id="Programming" clip-path="url(#clip0_5_145)">
<path id="Vector" d="M34.5 69C53.5538 69 69 53.5538 69 34.5C69 15.4462 53.5538 0 34.5 0C15.4462 0 0 15.4462 0 34.5C0 53.5538 15.4462 69 34.5 69Z" fill="#00C7FF"/>
<path id="Vector_2" d="M69 34.5C69 34.495 68.9999 34.4902 68.9999 34.4852L52.8452 18.3306L13.5439 50.6695L31.7668 68.8923C32.6687 68.9631 33.58 69 34.5 69C53.5538 69 69 53.5539 69 34.5Z" fill="#0093C4"/>
<path id="Vector_3" d="M52.8452 18.3306H34.5L32.8615 47.0863L52.8452 45.4478V18.3306Z" fill="#9ABADB"/>
<g id="Group">
<path id="Vector_4" d="M16.1548 18.3306V45.4478L34.5 47.0863V18.3306H16.1548Z" fill="#D1E8FF"/>
<path id="Vector_5" d="M55.456 45.4479H34.5L32.8615 48.0587L34.5 50.6695H55.456V45.4479Z" fill="#D1E8FF"/>
</g>
<path id="Vector_6" d="M34.5 45.4484H13.5439V50.6701H34.5V45.4484Z" fill="#F5F5FF"/>
<path id="Vector_7" d="M50.3894 20.7863H34.5L32.8615 31.8892L34.5 42.992H50.3894V20.7863Z" fill="#294B6E"/>
<path id="Vector_8" d="M34.5 20.7863H18.6111V42.9916H34.5V20.7863Z" fill="#6283A3"/>
<path id="Vector_9" d="M28.1827 38.3949L21.677 31.8892L28.1827 25.3835L29.9192 27.12L25.15 31.8892L29.9192 36.6584L28.1827 38.3949Z" fill="#F5F5FF"/>
<g id="Group_2">
<path id="Vector_10" d="M40.8173 38.3949L39.0808 36.6584L43.85 31.8892L39.0808 27.12L40.8173 25.3835L47.3229 31.8892L40.8173 38.3949Z" fill="#D1E8FF"/>
<path id="Vector_11" d="M31.781 39.2633L34.1897 39.7424L37.2181 24.5179L34.8094 24.0388L31.781 39.2633Z" fill="#D1E8FF"/>
</g>
</g>
<defs>
<clipPath id="clip0_5_145">
<rect width="69" height="69" fill="white"/>
</clipPath>
</defs>
</svg>
