<svg width="64" height="64" viewBox="0 0 64 64" fill="none" xmlns="http://www.w3.org/2000/svg">
<g id="Send" clip-path="url(#clip0_5_95)">
<path id="Vector" d="M41.0331 64C38.4289 64 36.1113 62.2518 35.396 59.7486L28.475 35.525L4.25138 28.604C1.74813 27.8888 0 25.5711 0 22.9679C0 20.328 1.69825 18.0455 4.226 17.2871L61.5861 0.0791445C62.2467 -0.11898 62.963 0.0615196 63.4507 0.54927C63.9385 1.03702 64.1191 1.75314 63.9209 2.41389L46.7127 59.7741C45.9545 62.3018 43.672 64 41.0331 64Z" fill="#02D9FF"/>
<path id="Vector_2" d="M41.0331 64C38.4289 64 36.1112 62.2518 35.396 59.7486L28.475 35.525L63.4507 0.549255C63.9385 1.03701 64.1191 1.75313 63.9209 2.41388L46.7127 59.7741C45.9545 62.3018 43.672 64 41.0331 64Z" fill="#23B0FF"/>
</g>
<defs>
<clipPath id="clip0_5_95">
<rect width="64" height="64" fill="white"/>
</clipPath>
</defs>
</svg>
